<?xml version="1.0" encoding="UTF-8" standalone="no"?>
<svg width="330px" height="64px" viewBox="0 0 330 64" version="1.1" xmlns="http://www.w3.org/2000/svg" xmlns:xlink="http://www.w3.org/1999/xlink">
    <!-- Generator: Sketch 3.8.3 (29802) - http://www.bohemiancoding.com/sketch -->
    <title>Group 3</title>
    <desc>Created with Sketch.</desc>
    <defs></defs>
    <g id="Header/Footer" stroke="none" stroke-width="1" fill="none" fill-rule="evenodd">
        <g id="Group-3" transform="translate(-8.000000, -8.000000)">
            <path d="M92.6953125,51.2158203 C93.4589882,51.3206385 94.2825477,51.4104814 95.1660156,51.4853516 C95.9296913,51.5602217 96.8019157,51.620117 97.7827148,51.6650391 C98.763514,51.7099612 99.8004503,51.7324219 100.893555,51.7324219 C102.346036,51.7324219 103.499019,51.6388356 104.352539,51.4516602 C105.206059,51.2644847 105.85742,50.9874693 106.306641,50.6206055 C106.755862,50.2537417 107.044107,49.8007839 107.171387,49.2617188 C107.298666,48.7226536 107.362305,48.1012405 107.362305,47.3974609 C107.362305,46.8434217 107.336101,46.3380557 107.283691,45.8813477 C107.231282,45.4246396 107.107748,45.0166034 106.913086,44.6572266 C106.718424,44.2978498 106.441408,43.9871432 106.082031,43.7250977 C105.722654,43.4630521 105.228519,43.2496753 104.599609,43.0849609 L98.0634766,41.3779297 C97.0302683,41.1083971 96.1543005,40.7452822 95.4355469,40.2885742 C94.7167933,39.8318662 94.1365582,39.2516311 93.6948242,38.5478516 C93.2530902,37.844072 92.9311534,36.9943084 92.7290039,35.9985352 C92.5268545,35.0027619 92.4257812,33.8310614 92.4257812,32.4833984 C92.4257812,30.8961509 92.6653622,29.522304 93.1445312,28.3618164 C93.6237003,27.2013288 94.3012652,26.2467485 95.1772461,25.4980469 C96.053227,24.7493452 97.112624,24.1953143 98.3554688,23.8359375 C99.5983135,23.4765607 100.983391,23.296875 102.510742,23.296875 C103.783535,23.296875 104.947749,23.3680006 106.003418,23.5102539 C107.059087,23.6525072 107.968746,23.8059888 108.732422,23.9707031 C109.630864,24.1653656 110.446936,24.3824858 111.180664,24.6220703 L111.180664,28.7773438 C110.506833,28.6874996 109.795577,28.6051436 109.046875,28.5302734 C108.402992,28.4554033 107.680505,28.3917646 106.879395,28.3393555 C106.078284,28.2869464 105.250981,28.2607422 104.397461,28.2607422 C103.064772,28.2607422 101.971684,28.3056636 101.118164,28.3955078 C100.264644,28.485352 99.5908228,28.6725246 99.0966797,28.9570312 C98.6025366,29.2415379 98.258139,29.6458307 98.0634766,30.1699219 C97.8688141,30.694013 97.7714844,31.3902951 97.7714844,32.2587891 C97.7714844,32.7379581 97.7976885,33.1647117 97.8500977,33.5390625 C97.9025068,33.9134133 98.0222972,34.2428371 98.2094727,34.5273438 C98.3966481,34.8118504 98.6661766,35.0589182 99.0180664,35.2685547 C99.3699562,35.4781912 99.8453746,35.6728507 100.444336,35.8525391 L106.53125,37.6044922 C107.3099,37.8291027 108.002438,38.0649402 108.608887,38.3120117 C109.215335,38.5590833 109.743162,38.8510725 110.192383,39.1879883 C110.641604,39.524904 111.027179,39.9179665 111.349121,40.3671875 C111.671063,40.8164085 111.929361,41.3517222 112.124023,41.9731445 C112.318686,42.5945669 112.460937,43.3245401 112.550781,44.1630859 C112.640625,45.0016318 112.685547,45.9674425 112.685547,47.0605469 C112.685547,48.7675867 112.539552,50.2312765 112.247559,51.4516602 C111.955565,52.6720439 111.405277,53.6678021 110.59668,54.4389648 C109.788082,55.2101276 108.676277,55.7791323 107.26123,56.1459961 C105.846184,56.5128599 104.015636,56.6962891 101.769531,56.6962891 C100.032543,56.6962891 98.5913143,56.6176766 97.4458008,56.4604492 C96.3002872,56.3032219 95.3681677,56.1272796 94.6494141,55.9326172 C93.8258422,55.7080067 93.1744816,55.4534519 92.6953125,55.1689453 L92.6953125,51.2158203 Z M116.407227,23.9482422 L121.75293,23.9482422 L121.75293,45.3759766 C121.75293,46.6487694 121.865233,47.696936 122.089844,48.5205078 C122.314454,49.3440796 122.685056,49.9916969 123.20166,50.4633789 C123.718264,50.935061 124.388342,51.2644847 125.211914,51.4516602 C126.035486,51.6388356 127.046218,51.7324219 128.244141,51.7324219 C129.322271,51.7324219 130.261878,51.6388356 131.062988,51.4516602 C131.864099,51.2644847 132.534177,50.935061 133.073242,50.4633789 C133.612307,49.9916969 134.012857,49.3440796 134.274902,48.5205078 C134.536948,47.696936 134.667969,46.6487694 134.667969,45.3759766 L134.667969,23.9482422 L140.013672,23.9482422 L140.013672,45.6904297 C140.013672,47.5621838 139.800295,49.1868421 139.373535,50.5644531 C138.946775,51.9420642 138.261723,53.0838171 137.318359,53.9897461 C136.374995,54.8956751 135.158373,55.5732399 133.668457,56.0224609 C132.178541,56.4716819 130.370453,56.6962891 128.244141,56.6962891 C126.117828,56.6962891 124.305997,56.4754254 122.808594,56.0336914 C121.31119,55.5919574 120.087082,54.9218795 119.13623,54.0234375 C118.185379,53.1249955 117.492841,51.9907295 117.058594,50.6206055 C116.624347,49.2504814 116.407227,47.6370536 116.407227,45.7802734 L116.407227,23.9482422 Z M145.577148,23.9482422 L158.290039,23.9482422 C158.978845,23.9482422 159.675127,24.0006505 160.378906,24.1054688 C161.082686,24.210287 161.756507,24.4086899 162.400391,24.7006836 C163.044274,24.9926772 163.643226,25.3857397 164.197266,25.8798828 C164.751305,26.3740259 165.237954,27.0066693 165.657227,27.777832 C166.076499,28.5489947 166.40218,29.4811143 166.634277,30.5742188 C166.866375,31.6673232 166.982422,32.9475838 166.982422,34.4150391 C166.982422,35.8824943 166.855145,37.1590115 166.600586,38.2446289 C166.346027,39.3302463 166.00163,40.254879 165.567383,41.0185547 C165.133136,41.7822304 164.624026,42.4036434 164.040039,42.8828125 C163.456052,43.3619816 162.834639,43.7400702 162.175781,44.0170898 C161.516924,44.2941095 160.839359,44.4812821 160.143066,44.5786133 C159.446774,44.6759445 158.761722,44.7246094 158.087891,44.7246094 L150.967773,44.7246094 L150.967773,56 L145.577148,56 L145.577148,23.9482422 Z M157.458984,39.7158203 C158.267582,39.7158203 158.922686,39.581056 159.424316,39.3115234 C159.925947,39.0419908 160.322752,38.6676456 160.614746,38.1884766 C160.90674,37.7093075 161.105143,37.1477897 161.209961,36.5039062 C161.314779,35.8600228 161.367188,35.1637407 161.367188,34.4150391 C161.367188,33.6813114 161.314779,32.9850293 161.209961,32.3261719 C161.105143,31.6673144 160.90674,31.0870793 160.614746,30.5854492 C160.322752,30.0838191 159.925947,29.6870132 159.424316,29.3950195 C158.922686,29.1030259 158.267582,28.9570312 157.458984,28.9570312 L150.967773,28.9570312 L150.967773,39.7158203 L157.458984,39.7158203 Z M170.367188,23.9482422 L189.638672,23.9482422 L189.638672,28.9570312 L175.757812,28.9570312 L175.757812,37.3798828 L187.392578,37.3798828 L187.392578,42.2988281 L175.757812,42.2988281 L175.757812,50.9912109 L190.020508,50.9912109 L190.020508,56 L170.367188,56 L170.367188,23.9482422 Z M193.674805,23.9482422 L205.601562,23.9482422 C206.455082,23.9482422 207.289872,24.004394 208.105957,24.1166992 C208.922042,24.2290045 209.693193,24.4274074 210.419434,24.7119141 C211.145674,24.9964207 211.808265,25.3819963 212.407227,25.8686523 C213.006188,26.3553084 213.526528,26.9804649 213.968262,27.7441406 C214.409996,28.5078163 214.75065,29.4212186 214.990234,30.484375 C215.229819,31.5475314 215.349609,32.7978444 215.349609,34.2353516 C215.349609,35.1936897 215.270997,36.0509402 215.11377,36.8071289 C214.956542,37.5633176 214.746909,38.2333955 214.484863,38.8173828 C214.222818,39.4013701 213.923342,39.9104796 213.586426,40.3447266 C213.24951,40.7789735 212.908856,41.1533187 212.564453,41.4677734 C211.740881,42.186527 210.812505,42.6881496 209.779297,42.9726562 L209.779297,43.0175781 L216.540039,56 L210.385742,56 L204.388672,44.2304688 L199.06543,44.2304688 L199.06543,56 L193.674805,56 L193.674805,23.9482422 Z M205.556641,39.1542969 C208.371759,39.1542969 209.779297,37.4098482 209.779297,33.9208984 C209.779297,33.0074824 209.678224,32.2325878 209.476074,31.5961914 C209.273925,30.959795 208.981936,30.4469421 208.600098,30.0576172 C208.21826,29.6682923 207.757815,29.3875334 207.21875,29.215332 C206.679685,29.0431306 206.080732,28.9570312 205.421875,28.9570312 L199.06543,28.9570312 L199.06543,39.1542969 L205.556641,39.1542969 Z M218.532227,39.6708984 C218.532227,36.6012216 218.865394,34.0219831 219.531738,31.9331055 C220.198083,29.8442278 221.14892,28.1596744 222.384277,26.8793945 C223.619635,25.5991147 225.105786,24.6819689 226.842773,24.1279297 C228.579761,23.5738905 230.526356,23.296875 232.682617,23.296875 C234.135098,23.296875 235.434076,23.371744 236.57959,23.5214844 C237.725103,23.6712247 238.709631,23.8359366 239.533203,24.015625 C240.476567,24.2252615 241.322587,24.4573555 242.071289,24.7119141 L242.071289,28.7773438 C241.262691,28.6874996 240.39421,28.6126305 239.46582,28.5527344 C238.672197,28.4928382 237.766281,28.4366865 236.748047,28.3842773 C235.729813,28.3318682 234.681646,28.3056641 233.603516,28.3056641 C231.731761,28.3056641 230.181972,28.504067 228.954102,28.9008789 C227.726231,29.2976908 226.752933,29.945308 226.03418,30.84375 C225.315426,31.742192 224.81006,32.9138925 224.518066,34.3588867 C224.226073,35.8038809 224.080078,37.5745338 224.080078,39.6708984 C224.080078,41.8121852 224.23356,43.6427333 224.540527,45.1625977 C224.847495,46.682462 225.352861,47.9290316 226.056641,48.9023438 C226.76042,49.8756559 227.688796,50.5906553 228.841797,51.0473633 C229.994797,51.5040713 231.417309,51.7324219 233.109375,51.7324219 C233.843103,51.7324219 234.509437,51.7099612 235.108398,51.6650391 C235.70736,51.620117 236.216469,51.5602217 236.635742,51.4853516 C237.129885,51.4104814 237.564126,51.3206385 237.938477,51.2158203 L237.938477,42.9726562 L232.098633,42.9726562 L232.098633,38.0537109 L243.28418,38.0537109 L243.28418,54.4726562 C242.400712,54.8919292 241.434901,55.2662744 240.386719,55.5957031 C239.488277,55.8802098 238.42888,56.1347645 237.208496,56.359375 C235.988112,56.5839855 234.666674,56.6962891 233.244141,56.6962891 C230.923165,56.6962891 228.853036,56.4342474 227.033691,55.9101562 C225.214346,55.3860651 223.675788,54.4726628 222.417969,53.1699219 C221.16015,51.867181 220.198083,50.1227323 219.531738,47.9365234 C218.865394,45.7503146 218.532227,42.9951338 218.532227,39.6708984 L218.532227,39.6708984 Z M247.859375,23.9482422 L253.25,23.9482422 L253.25,56 L247.859375,56 L247.859375,23.9482422 Z M265.551758,23.9482422 L272.694336,23.9482422 L283.183594,56 L277.231445,56 L274.536133,47.3076172 L263.620117,47.3076172 L261.037109,56 L255.152344,56 L265.551758,23.9482422 Z M273.053711,42.4785156 L269.100586,28.9121094 L269.010742,28.9121094 L265.057617,42.4785156 L273.053711,42.4785156 Z M285.085938,23.9482422 L294.025391,23.9482422 L305.705078,50.9912109 L305.817383,50.9912109 C305.802409,50.4521457 305.787435,49.9056017 305.772461,49.3515625 C305.757487,48.8723934 305.75,48.355797 305.75,47.8017578 L305.75,46.2070312 L305.75,23.9482422 L311.073242,23.9482422 L311.073242,56 L302.335938,56 L292.453125,33.4492188 C292.183592,32.8203094 291.929038,32.2363308 291.689453,31.6972656 C291.449869,31.1582004 291.247722,30.6865255 291.083008,30.2822266 C290.873371,29.8030575 290.686199,29.3613301 290.521484,28.9570312 L290.431641,28.9570312 L290.431641,56 L285.085938,56 L285.085938,23.9482422 Z M322.543945,28.9121094 L312.930664,28.9121094 L312.930664,23.9482422 L337.592773,23.9482422 L337.592773,28.9121094 L327.889648,28.9121094 L327.889648,56 L322.543945,56 L322.543945,28.9121094 Z" id="SUPERGIANT-Copy-7" fill="#485369"></path>
            <path d="M30.4590835,66.7127168 C42.4140352,66.7127168 52.1054385,56.5311895 52.1054385,43.9716391 C52.1054385,31.4120886 42.4140352,21.2305613 30.4590835,21.2305613 C18.5041317,21.2305613 8.81272845,31.4120886 8.81272845,43.9716391 C8.81272845,56.5311895 18.5041317,66.7127168 30.4590835,66.7127168 Z" id="Oval-1-Copy-21" fill="#8199A7" transform="translate(30.459083, 43.971639) rotate(-330.000000) translate(-30.459083, -43.971639) "></path>
            <path d="M35.1111831,53.747148 C47.0661348,53.747148 56.7575381,43.5656207 56.7575381,31.0060703 C56.7575381,18.4465198 47.0661348,8.26499252 35.1111831,8.26499252 C23.1562313,8.26499252 13.4648281,18.4465198 13.4648281,31.0060703 C13.4648281,43.5656207 23.1562313,53.747148 35.1111831,53.747148 Z" id="Oval-1-Copy-22" fill="#8199A7" transform="translate(35.111183, 31.006070) rotate(-330.000000) translate(-35.111183, -31.006070) "></path>
            <path d="M49.0674819,66.7127168 C61.0224337,66.7127168 70.7138369,56.5311895 70.7138369,43.9716391 C70.7138369,31.4120886 61.0224337,21.2305613 49.0674819,21.2305613 C37.1125301,21.2305613 27.4211269,31.4120886 27.4211269,43.9716391 C27.4211269,56.5311895 37.1125301,66.7127168 49.0674819,66.7127168 Z" id="Oval-1-Copy-23" fill="#8199A7" transform="translate(49.067482, 43.971639) rotate(-330.000000) translate(-49.067482, -43.971639) "></path>
            <path d="M47.516782,55.3678441 C59.4717338,55.3678441 69.1631371,45.1863168 69.1631371,32.6267664 C69.1631371,20.0672159 59.4717338,9.88568862 47.516782,9.88568862 C35.5618303,9.88568862 25.870427,20.0672159 25.870427,32.6267664 C25.870427,45.1863168 35.5618303,55.3678441 47.516782,55.3678441 Z" id="Oval-1-Copy-24" fill="#8199A7" transform="translate(47.516782, 32.626766) rotate(-330.000000) translate(-47.516782, -32.626766) "></path>
            <path d="M41.3139826,71.5748051 C53.2689343,71.5748051 62.9603376,61.3932778 62.9603376,48.8337273 C62.9603376,36.2741769 53.2689343,26.0926496 41.3139826,26.0926496 C29.3590308,26.0926496 19.6676275,36.2741769 19.6676275,48.8337273 C19.6676275,61.3932778 29.3590308,71.5748051 41.3139826,71.5748051 Z" id="Oval-1-Copy-25" fill="#9EB2BE" transform="translate(41.313983, 48.833727) rotate(-330.000000) translate(-41.313983, -48.833727) "></path>
            <path d="M33.5604832,58.6092363 C45.515435,58.6092363 55.2068382,48.427709 55.2068382,35.8681586 C55.2068382,23.3086081 45.515435,13.1270808 33.5604832,13.1270808 C21.6055314,13.1270808 11.9141282,23.3086081 11.9141282,35.8681586 C11.9141282,48.427709 21.6055314,58.6092363 33.5604832,58.6092363 Z" id="Oval-1-Copy-26" fill="#9EB2BE" transform="translate(33.560483, 35.868159) rotate(-330.000000) translate(-33.560483, -35.868159) "></path>
            <path d="M45.9660822,58.6092363 C57.9210339,58.6092363 67.6124372,48.427709 67.6124372,35.8681586 C67.6124372,23.3086081 57.9210339,13.1270808 45.9660822,13.1270808 C34.0111304,13.1270808 24.3197272,23.3086081 24.3197272,35.8681586 C24.3197272,48.427709 34.0111304,58.6092363 45.9660822,58.6092363 Z" id="Oval-1-Copy-27" fill="#9EB2BE" transform="translate(45.966082, 35.868159) rotate(-330.000000) translate(-45.966082, -35.868159) "></path>
            <path d="M44.4153823,65.0920207 C56.3703341,65.0920207 66.0617373,54.9104934 66.0617373,42.350943 C66.0617373,29.7913925 56.3703341,19.6098652 44.4153823,19.6098652 C32.4604305,19.6098652 22.7690273,29.7913925 22.7690273,42.350943 C22.7690273,54.9104934 32.4604305,65.0920207 44.4153823,65.0920207 Z" id="Oval-1-Copy-28" fill="#D7E4EA" transform="translate(44.415382, 42.350943) rotate(-330.000000) translate(-44.415382, -42.350943) "></path>
            <path d="M36.661883,65.0920207 C48.6168347,65.0920207 58.308238,54.9104934 58.308238,42.350943 C58.308238,29.7913925 48.6168347,19.6098652 36.661883,19.6098652 C24.7069312,19.6098652 15.0155279,29.7913925 15.0155279,42.350943 C15.0155279,54.9104934 24.7069312,65.0920207 36.661883,65.0920207 Z" id="Oval-1-Copy-29" fill="#D7E4EA" transform="translate(36.661883, 42.350943) rotate(-330.000000) translate(-36.661883, -42.350943) "></path>
            <path d="M39.7632827,55.3678441 C51.7182345,55.3678441 61.4096377,45.1863168 61.4096377,32.6267664 C61.4096377,20.0672159 51.7182345,9.88568862 39.7632827,9.88568862 C27.8083309,9.88568862 18.1169277,20.0672159 18.1169277,32.6267664 C18.1169277,45.1863168 27.8083309,55.3678441 39.7632827,55.3678441 Z" id="Oval-1-Copy-30" fill="#D7E4EA" transform="translate(39.763283, 32.626766) rotate(-330.000000) translate(-39.763283, -32.626766) "></path>
            <path d="M39.7632827,61.8506285 C51.7182345,61.8506285 61.4096377,51.6691012 61.4096377,39.1095508 C61.4096377,26.5500003 51.7182345,16.368473 39.7632827,16.368473 C27.8083309,16.368473 18.1169277,26.5500003 18.1169277,39.1095508 C18.1169277,51.6691012 27.8083309,61.8506285 39.7632827,61.8506285 Z" id="Oval-1-Copy-31" fill="#FFFFFF" transform="translate(39.763283, 39.109551) rotate(-330.000000) translate(-39.763283, -39.109551) "></path>
        </g>
    </g>
</svg>