<?xml version="1.0" encoding="utf-8"?>
<!-- Generator: Adobe Illustrator 20.0.0, SVG Export Plug-In . SVG Version: 6.00 Build 0)  -->
<svg version="1.1" id="Layer_1" xmlns="http://www.w3.org/2000/svg" xmlns:xlink="http://www.w3.org/1999/xlink" x="0px" y="0px"
	 viewBox="0 0 179.497 10.632" enable-background="new 0 0 179.497 10.632" xml:space="preserve">
<g>
	<path fill="#454545" d="M2.787,2.129H0V0.126h7.802v2.003H5v8.377H2.787V2.129z"/>
	<path fill="#454545" d="M8.764,0.126h2.199v3.937h3.446V0.126h2.213v10.38h-2.213V6.233h-3.446v4.272H8.764V0.126z"/>
	<path fill="#454545" d="M18.242,0.126h6.401v2.003h-4.258v2.073h4.076v1.989h-4.076v2.354h4.272v1.961h-6.416V0.126z"/>
	<path fill="#454545" d="M31.025,0.057h2.353l3.236,10.449h-2.255l-0.476-1.611h-3.432l-0.462,1.611H27.79L31.025,0.057z
		 M33.351,6.962l-1.177-3.937l-1.205,3.937H33.351z"/>
	<path fill="#454545" d="M36.833,9.693l1.106-1.681c0.574,0.364,1.541,0.742,2.76,0.742c1.19,0,1.583-0.378,1.583-1.064
		c0-0.91-0.476-1.051-2.171-1.583c-1.905-0.588-2.815-1.358-2.815-3.054C37.296,1.022,38.584,0,40.882,0
		c1.442,0,2.353,0.252,3.18,0.645l-0.953,1.877c-0.49-0.238-1.19-0.462-2.171-0.462c-1.05,0-1.499,0.266-1.499,0.924
		c0,0.715,0.406,0.883,1.653,1.289c2.479,0.799,3.32,1.345,3.32,3.376c0,1.835-1.121,2.983-3.656,2.983
		C39.033,10.632,37.772,10.31,36.833,9.693z"/>
	<path fill="#454545" d="M45.625,0.126h3.992c2.493,0,3.418,1.261,3.418,3.376c0,2.087-0.911,3.6-3.46,3.6h-1.793v3.404h-2.157
		V0.126z M49.547,5.197c0.953,0,1.345-0.448,1.345-1.569c0-1.135-0.392-1.568-1.345-1.568h-1.765v3.138H49.547z"/>
	<path fill="#454545" d="M54.333,0.126h2.185v10.38h-2.185V0.126z"/>
	<path fill="#454545" d="M61.797,7.032h-1.373v3.474h-2.157V0.126h3.964c2.494,0,3.418,1.205,3.418,3.306
		c0,1.527-0.49,2.746-1.737,3.292l1.667,3.782h-2.297L61.797,7.032z M62.176,5.113c0.952,0,1.331-0.421,1.331-1.527
		c0-1.12-0.378-1.526-1.331-1.526h-1.751v3.054H62.176z"/>
	<path fill="#454545" d="M67.003,0.126h6.401v2.003h-4.258v2.073h4.076v1.989h-4.076v2.354h4.272v1.961h-6.416V0.126z"/>
	<path fill="#129AD6" d="M75.836,9.567L77.041,7.9c0.518,0.378,1.499,0.896,2.872,0.896c1.051,0,1.513-0.49,1.513-1.303
		c0-0.729-0.476-0.952-1.849-1.499c-1.499-0.602-2.241-1.387-2.241-2.633C77.335,0.826,79.086,0,81.117,0
		c1.485,0,2.563,0.336,3.208,0.729L83.26,2.577c-0.448-0.266-1.289-0.574-2.241-0.574c-0.966,0-1.499,0.351-1.499,1.135
		c0,0.603,0.364,0.826,1.358,1.219c1.877,0.757,2.746,1.415,2.746,2.83c0,2.395-1.471,3.445-3.726,3.445
		C78.078,10.632,76.691,10.197,75.836,9.567z"/>
	<path fill="#129AD6" d="M86.1,0.126h3.18c2.746,0,3.572,1.051,3.572,2.605c0,0.336-0.042,0.7-0.112,1.079
		c-0.35,1.975-1.317,3.291-3.642,3.291H87.01l-0.588,3.404h-2.157L86.1,0.126z M89.111,5.169c0.84,0,1.275-0.364,1.457-1.442
		c0.042-0.225,0.07-0.406,0.07-0.589c0-0.7-0.364-1.078-1.443-1.078h-1.289L87.36,5.169H89.111z"/>
	<path fill="#129AD6" d="M92.945,6.948c0-0.645,0.084-1.303,0.21-1.976C93.646,2.144,94.724,0,97.862,0
		c3.096,0,3.922,1.681,3.922,3.712c0,0.645-0.084,1.317-0.196,2.003c-0.504,2.802-1.569,4.917-4.791,4.917
		C93.786,10.632,92.945,8.965,92.945,6.948z M99.346,5.575c0.112-0.616,0.182-1.163,0.182-1.653c0-1.078-0.378-1.807-1.681-1.807
		c-1.695,0-2.143,1.177-2.479,3.138c-0.098,0.603-0.196,1.163-0.196,1.639c0,1.079,0.392,1.793,1.723,1.793
		C98.562,8.685,98.996,7.536,99.346,5.575z"/>
	<path fill="#129AD6" d="M105.953,7.032h-1.317l-0.616,3.474h-2.157l1.835-10.38h3.138c2.788,0,3.586,1.121,3.586,2.634
		c0,0.322-0.042,0.658-0.098,1.022c-0.28,1.541-0.924,2.661-2.283,3.082l0.967,3.642h-2.171L105.953,7.032z M106.779,5.113
		c0.757,0,1.191-0.322,1.387-1.373c0.028-0.21,0.042-0.42,0.042-0.574c0-0.7-0.336-1.106-1.471-1.106h-1.232l-0.532,3.054H106.779z"
		/>
	<path fill="#129AD6" d="M113.792,2.129h-2.717l0.35-2.003h7.648l-0.364,2.003h-2.704l-1.485,8.377h-2.213L113.792,2.129z"/>
	<path fill="#129AD6" d="M117.598,9.567l1.205-1.667c0.518,0.378,1.499,0.896,2.872,0.896c1.051,0,1.513-0.49,1.513-1.303
		c0-0.729-0.476-0.952-1.849-1.499c-1.499-0.602-2.241-1.387-2.241-2.633c0-2.536,1.751-3.362,3.782-3.362
		c1.485,0,2.563,0.336,3.208,0.729l-1.064,1.849c-0.448-0.266-1.289-0.574-2.241-0.574c-0.966,0-1.499,0.351-1.499,1.135
		c0,0.603,0.364,0.826,1.358,1.219c1.877,0.757,2.746,1.415,2.746,2.83c0,2.395-1.471,3.445-3.726,3.445
		C119.839,10.632,118.453,10.197,117.598,9.567z"/>
	<path fill="#454545" d="M129.317,0.126h6.401v2.003h-4.258v2.073h4.076v1.989h-4.076v2.354h4.272v1.961h-6.416V0.126z"/>
	<path fill="#454545" d="M137.115,0.126h3.236c3.292,0,4.566,1.219,4.566,5.183c0,4.049-1.247,5.197-4.566,5.197h-3.236V0.126z
		 M140.546,8.601c1.527,0,2.144-0.616,2.144-3.277c0-2.647-0.603-3.194-2.199-3.194h-1.177v6.472H140.546z"/>
	<path fill="#454545" d="M146.229,0.126h2.185v10.38h-2.185V0.126z"/>
	<path fill="#454545" d="M152.292,2.129h-2.787V0.126h7.802v2.003h-2.801v8.377h-2.213V2.129z"/>
	<path fill="#454545" d="M158.395,0.126h2.185v10.38h-2.185V0.126z"/>
	<path fill="#454545" d="M161.895,5.323c0-2.83,0.588-5.323,4.3-5.323c3.712,0,4.3,2.493,4.3,5.323c0,2.815-0.588,5.309-4.3,5.309
		C162.482,10.632,161.895,8.139,161.895,5.323z M168.268,5.394c0-1.947-0.224-3.278-2.073-3.278c-1.849,0-2.073,1.331-2.073,3.278
		c0,1.961,0.224,3.291,2.073,3.291C168.043,8.685,168.268,7.354,168.268,5.394z"/>
	<path fill="#454545" d="M171.681,0.126h2.325l3.404,5.981V0.126h2.087v10.38h-2.017l-3.712-6.472v6.472h-2.087V0.126z"/>
</g>
</svg>
