<?xml version="1.0" encoding="utf-8"?>
<!-- Generator: Adobe Illustrator 20.0.0, SVG Export Plug-In . SVG Version: 6.00 Build 0)  -->
<svg version="1.1" id="Layer_1" xmlns="http://www.w3.org/2000/svg" xmlns:xlink="http://www.w3.org/1999/xlink" x="0px" y="0px"
	 viewBox="0 0 172.886 10.632" enable-background="new 0 0 172.886 10.632" xml:space="preserve">
<g>
	<path fill="#454545" d="M3.236,0.056h2.353l3.236,10.45H6.569L6.093,8.895H2.662l-0.462,1.611H0L3.236,0.056z M5.561,6.962
		L4.384,3.026L3.18,6.962H5.561z"/>
	<path fill="#454545" d="M11.76,5.323C11.76,2.171,12.559,0,16.088,0c1.093,0,2.073,0.266,2.815,0.757l-1.177,1.821
		c-0.42-0.266-0.994-0.434-1.708-0.434c-1.443,0-2.031,0.686-2.031,3.235c0,2.507,0.56,3.278,2.045,3.278
		c0.743,0,1.247-0.154,1.835-0.532l1.079,1.695c-0.826,0.519-1.639,0.812-3.025,0.812C12.685,10.632,11.76,8.573,11.76,5.323z"/>
	<path fill="#454545" d="M22.583,0.056h2.353l3.236,10.45h-2.255l-0.476-1.611h-3.432l-0.462,1.611h-2.199L22.583,0.056z
		 M24.909,6.962l-1.177-3.936l-1.205,3.936H24.909z"/>
	<path fill="#454545" d="M32.692,7.032h-1.373v3.474h-2.157V0.126h3.964c2.494,0,3.418,1.205,3.418,3.306
		c0,1.527-0.49,2.746-1.737,3.292l1.667,3.782h-2.297L32.692,7.032z M33.07,5.113c0.952,0,1.331-0.42,1.331-1.527
		c0-1.121-0.378-1.527-1.331-1.527h-1.751v3.054H33.07z"/>
	<path fill="#454545" d="M40.278,0.126h3.236c3.292,0,4.566,1.218,4.566,5.183c0,4.048-1.247,5.197-4.566,5.197h-3.236V0.126z
		 M43.709,8.601c1.527,0,2.143-0.616,2.143-3.277c0-2.647-0.602-3.194-2.199-3.194h-1.177v6.471H43.709z"/>
	<path fill="#454545" d="M49.266,0.126h6.401v2.003h-4.258v2.073h4.076v1.989h-4.076v2.354h4.272v1.961h-6.416V0.126z"/>
	<path fill="#454545" d="M56.266,9.693l1.106-1.681c0.574,0.364,1.541,0.742,2.76,0.742c1.19,0,1.583-0.378,1.583-1.064
		c0-0.911-0.476-1.051-2.171-1.583c-1.905-0.588-2.815-1.359-2.815-3.054C56.728,1.023,58.017,0,60.314,0
		c1.442,0,2.353,0.252,3.18,0.645l-0.953,1.877c-0.49-0.238-1.19-0.462-2.171-0.462c-1.05,0-1.499,0.266-1.499,0.925
		c0,0.714,0.406,0.882,1.653,1.289c2.479,0.798,3.32,1.345,3.32,3.376c0,1.835-1.121,2.983-3.656,2.983
		C58.465,10.632,57.204,10.31,56.266,9.693z"/>
	<path fill="#454545" d="M65.184,0.126h2.185v10.379h-2.185V0.126z"/>
	<path fill="#454545" d="M68.684,5.323C68.684,1.625,69.776,0,73.096,0c1.275,0,2.283,0.336,3.012,0.799L74.945,2.62
		c-0.476-0.266-1.064-0.504-1.947-0.504c-1.358,0-2.115,0.519-2.115,3.264c0,2.634,0.504,3.39,2.031,3.39
		c1.331,0,1.569-0.687,1.569-2.283V6.233h-2.017V4.343h4.104v1.75c0,3.348-0.743,4.539-3.852,4.539
		C69.51,10.632,68.684,8.615,68.684,5.323z"/>
	<path fill="#454545" d="M77.742,0.126h2.325l3.404,5.981V0.126h2.087v10.379h-2.017l-3.712-6.472v6.472h-2.087V0.126z"/>
	<path fill="#454545" d="M87.164,0.126h6.401v2.003h-4.258v2.073h4.076v1.989h-4.076v2.354h4.272v1.961h-6.416V0.126z"/>
	<path fill="#454545" d="M94.961,0.126h3.236c3.292,0,4.566,1.218,4.566,5.183c0,4.048-1.247,5.197-4.566,5.197h-3.236V0.126z
		 M98.393,8.601c1.527,0,2.143-0.616,2.143-3.277c0-2.647-0.602-3.194-2.199-3.194h-1.177v6.471H98.393z"/>
	<path fill="#454545" d="M108.458,2.129h-2.787V0.126h7.802v2.003h-2.801v8.376h-2.213V2.129z"/>
	<path fill="#454545" d="M113.763,5.323c0-2.83,0.588-5.323,4.3-5.323c3.712,0,4.3,2.494,4.3,5.323c0,2.815-0.588,5.309-4.3,5.309
		C114.351,10.632,113.763,8.139,113.763,5.323z M120.136,5.393c0-1.947-0.224-3.278-2.073-3.278c-1.849,0-2.073,1.331-2.073,3.278
		c0,1.961,0.224,3.292,2.073,3.292C119.912,8.685,120.136,7.354,120.136,5.393z"/>
	<path fill="#454545" d="M128.058,2.129h-2.787V0.126h7.802v2.003h-2.802v8.376h-2.213V2.129z"/>
	<path fill="#454545" d="M134.035,0.126h2.199v3.936h3.446V0.126h2.213v10.379h-2.213V6.233h-3.446v4.272h-2.199V0.126z"/>
	<path fill="#454545" d="M147.043,7.032h-1.373v3.474h-2.157V0.126h3.964c2.494,0,3.418,1.205,3.418,3.306
		c0,1.527-0.49,2.746-1.737,3.292l1.667,3.782h-2.297L147.043,7.032z M147.421,5.113c0.952,0,1.331-0.42,1.331-1.527
		c0-1.121-0.378-1.527-1.331-1.527h-1.751v3.054H147.421z"/>
	<path fill="#454545" d="M152.375,0.126h2.185v10.379h-2.185V0.126z"/>
	<path fill="#454545" d="M156.309,0.126h2.199v8.418h4.034v1.961h-6.233V0.126z"/>
	<path fill="#454545" d="M163.491,0.126h2.199v8.418h4.034v1.961h-6.233V0.126z"/>
	<path fill="#454545" d="M170.477,7.999h2.409v2.507h-2.409V7.999z"/>
</g>
</svg>
