<?xml version="1.0" encoding="utf-8"?>
<!-- Generator: Adobe Illustrator 17.1.0, SVG Export Plug-In . SVG Version: 6.00 Build 0)  -->
<!DOCTYPE svg PUBLIC "-//W3C//DTD SVG 1.1//EN" "http://www.w3.org/Graphics/SVG/1.1/DTD/svg11.dtd">
<svg version="1.1" id="Layer_1" xmlns="http://www.w3.org/2000/svg" xmlns:xlink="http://www.w3.org/1999/xlink" x="0px" y="0px"
	 viewBox="0 0 181.949 71.748" enable-background="new 0 0 181.949 71.748" xml:space="preserve">
<g>
	<g>
		<path fill="#015186" d="M181.872,21.611c0.202-0.354-0.011-0.615-0.459-0.615c-2.34,0-5.409,0.006-7.847,0.006
			c-0.581,0-0.882,0.07-1.156,0.609c-0.899,1.725-11.867,18.161-13.908,21.353c-0.344,0.486-0.764,0.419-0.813-0.135
			c-0.206-1.896-1.844-4.074-4.423-5.117c-1.965-0.797-3.888-0.942-5.885-0.677c-3.607,0.484-6.821,2.389-9.646,4.534
			c-4.259,3.238-7.933,7.434-12.675,10.534c-2.59,1.687-6.135,3.159-8.507,0.962c-2.147-1.99-1.905-6.412,1.38-9.831
			c0.347-0.358,0.761-0.059,0.696,0.263c-0.309,1.547,0.072,3.085,1.245,4.162c1.434,1.284,3.484,1.43,5.24,0.573
			c2.072-1.026,3.289-3.008,3.644-5.258c0.549-3.49-2.137-6.568-5.498-6.814c-2.73-0.191-5.349,0.758-7.9,2.864
			c-1.279,1.061-2.007,1.845-3.112,3.419c-0.269,0.386-0.684,0.426-0.671-0.146c0.129-4.469-1.72-6.982-5.415-7.064
			c-2.866-0.067-5.93,1.487-8.317,3.391c-2.616,2.102-4.904,4.887-7.357,7.505c-0.305,0.322-0.573,0.307-0.658-0.319
			c-0.074-2.96-0.818-5.827-2.188-7.863c-0.484-0.709-1.504-1.06-2.361-0.58c-0.396,0.216-1.775,0.849-2.776,1.657
			c-0.498,0.41-0.69,1.002-0.473,1.762c1.324,4.422,1.032,9.451-0.761,13.698c-1.647,3.889-4.85,7.398-8.612,8.585
			c-2.479,0.786-5.058,0.401-6.652-1.796c-2.19-3.034-1.306-8.309,1.958-12.69c2.883-3.856,7.05-6.307,11.208-7.885
			c0.489-0.189,0.59-0.503,0.452-0.918c-0.227-0.684-0.586-1.615-0.734-2.04c-0.381-1.014-1.449-1.179-2.751-1.037
			c-3.02,0.351-5.746,1.386-8.438,2.827C60.65,43.305,57.116,50.61,55.566,54.518c-0.745,1.877-1.383,3.049-2.208,4.087
			c-1.111,1.397-2.505,2.668-5.056,4.907c-0.231,0.206-0.403,0.635-0.209,1.032c0.26,0.54,1.587,2.412,1.961,2.579
			c0.416,0.205,0.898-0.08,1.09-0.22c1.785-1.209,3.919-3.126,4.966-4.427c0.366-0.445,0.742-0.258,0.936,0.418
			c0.976,3.479,3.53,6.319,7.06,7.508c6.463,2.18,13.167-0.976,18.226-6.467c3.217-3.491,4.377-5.736,5.608-7.261
			c2.088-2.589,6.209-8.379,11.117-12.096c1.8-1.37,3.93-2.415,5.001-1.721c0.859,0.556,1.137,1.852-0.242,4.36
			c-5.003,9.137-12.366,19.872-13.716,22.475c-0.246,0.452-0.032,0.807,0.441,0.807c2.618-0.012,5.214-0.007,7.591-0.007
			c0.396-0.019,0.573-0.199,0.771-0.478c3.84-6.011,7.454-11.732,11.327-17.647c0.216-0.349,0.416-0.079,0.425,0.074
			c0.08,1.372,0.417,3.25,1.231,4.482c1.464,2.278,3.539,3.258,5.841,3.272c1.831,0.021,2.757-0.257,4.731-0.994
			c1.607-0.596,2.897-1.379,3.887-2.086c0.578-0.401,0.68,0.271,0.664,0.373c-0.887,4.772,0.209,10.426,4.951,12.77
			c5.675,2.798,11.91-1.134,15.499-4.685c0.35-0.342,0.727-0.306,0.764,0.431c0.076,1.356,0.688,2.965,1.81,4.09
			c3.006,3.018,9.073,1.822,15.161-2.89c3.909-3.018,8-7.28,11.695-11.795c0.137-0.174,0.238-0.456-0.026-0.739
			c-0.562-0.589-1.377-1.263-1.934-1.782c-0.256-0.216-0.628-0.154-0.842,0.008c-3.787,3.602-7.196,7.709-12.124,11.106
			c-1.661,1.159-4.309,2.095-5.499,0.485c-0.463-0.624-0.411-1.49,0.047-2.624C157.948,58.281,180.692,23.654,181.872,21.611z
			 M151.809,50.65c0.046,0.265,0.392,0.522,0.73,0.643c0.119,0.044,0.186,0.131,0.051,0.409c-0.968,2.073-1.856,3.267-3.068,5.068
			c-1.114,1.664-2.37,2.963-3.892,4.21c-2.293,1.898-5.479,3.965-8.113,2.576c-1.17-0.608-1.675-2.244-1.652-3.57
			c0.061-3.727,1.714-7.553,4.774-11.314c3.733-4.594,7.859-6.977,10.566-5.675c2.801,1.336,1.907,4.58,0.654,7.126
			C151.766,50.322,151.759,50.489,151.809,50.65z"/>
		<path fill="#015186" d="M16.899,70.362c-8.48,0.061-15.951-5.181-16.808-14.254C-0.386,51.081,1.036,46.6,3.88,42.909
			c2.524-3.288,6.795-6.022,10.411-6.689c1.177-0.216,2.758-0.079,3.411,0.7c1.025,1.193,0.729,2.503-0.294,3.027
			c-2.759,1.408-6.078,3.819-7.72,7.111c-1.334,2.687-1.602,5.927,0.433,9.012c3.406,5.142,12.898,5.283,21.725-2.917
			c2.185-2.007,4.142-3.935,6.13-6.219c3.888-4.445,5.18-6.065,10.348-13.233c0.062-0.081,0.079-0.191,0.052-0.244
			c-0.042-0.091-0.115-0.117-0.265-0.126c-3.449,0.095-6.457,1.124-9.38,3.309c-0.842,0.614-2.053,0.527-2.584-0.281
			c-0.59-0.913-0.168-2.104,0.805-2.775c4.702-3.27,9.84-3.864,15.085-4.75c-0.004,0,0.365,0.018,0.665-0.381
			c2.153-2.763,3.78-5.257,6.074-8.052c2.313-2.836,5.303-5.44,7.586-7.395c3.186-2.741,5.229-3.662,7.305-4.793
			c0.547-0.285-0.07-0.628-0.235-0.628C61.836,5.405,49.784,2.585,38.267,6.849c-7.975,2.976-11.469,9.302-9.788,13.527
			c1.195,2.997,5.138,3.485,8.829,1.679c3.066-1.503,5.902-3.923,7.913-7.04c1.126-1.73,3.497-0.482,2.217,2.524
			c-3.37,7.921-9.809,14.203-17.652,14.468c-6.673,0.216-10.98-4.693-10.965-10.75C18.846,9.309,32.15,1.44,46.126,0.263
			c16.834-1.391,32.777,3.092,49.491,5.12c12.806,1.551,25.083,1.584,37.953-1.374c1.522-0.33,2.59,0.64,2.491,2.177
			c-0.126,2.222-1.847,4.361-6.086,6.674c-4.821,2.644-9.865,3.446-15.132,3.489c-12.739,0.106-24.604-4.859-36.882-7.527
			c0.018,0.537,0.156,1.178-0.295,1.517C70.866,15.356,64.719,20.45,60.6,27.605c-0.139,0.165-0.063,0.323,0.177,0.306
			c3.575-0.189,6.79-0.282,10.128-0.549c0.582-0.049,0.604-0.194,0.552-0.62c-0.293-2.467,0.426-5.279,2.595-7.213
			c2.22-1.991,5.001-2.218,6.843-0.784c2.097,1.633,1.911,4.569,0.764,6.771c-1.167,2.235-3.092,3.429-4.943,4.009
			c0,0-0.387,0.085-0.331,0.438c0.074,0.564,2.593,1.961,2.809,2.332c0.208,0.354,0.101,0.903-0.282,1.323
			c-0.268,0.305-0.684,0.593-1.219,0.582c-0.434-0.009-0.697-0.158-1.247-0.457c-1.132-0.614-2.544-1.62-3.486-2.807
			c-0.322-0.401-0.484-0.41-1.287-0.367c-3.612,0.209-9.243,0.753-13.059,1.23c-0.924,0.115-1.06,0.287-1.25,0.608
			C51.281,42.44,44.786,53.258,37.655,60.499C30.006,68.266,23.647,70.309,16.899,70.362z M74.867,25.789
			c0.096,0.515,0.297,0.614,0.529,0.571c1.158-0.232,2.428-1.185,3.177-2.289c0.685-1.001,1.006-2.447,0.327-3.026
			c-0.608-0.521-1.593-0.373-2.322,0.272C75.121,22.603,74.678,24.427,74.867,25.789z"/>
	</g>
	<path fill="#015186" d="M85.208,23.422h1.181l0.982,7.037h-1.058l-0.142-1.181h-0.794l-0.132,1.181h-1.011L85.208,23.422z
		 M85.491,28.278h0.567l-0.161-1.342l-0.113-1.379l-0.132,1.379L85.491,28.278z"/>
	<path fill="#015186" d="M88.945,30.421l0.217-0.954c0.198,0.048,0.558,0.086,0.746,0.086c0.444,0,0.558-0.228,0.35-0.822
		L89.2,25.557c-0.331-0.973-0.218-2.153,1.237-2.153c0.236,0,0.595,0.019,0.821,0.066l-0.245,1.001
		c-0.133-0.038-0.368-0.047-0.501-0.047c-0.491,0-0.528,0.34-0.378,0.803l1.002,3.003c0.358,1.03,0.453,2.296-1.172,2.296
		C89.606,30.526,89.19,30.478,88.945,30.421z"/>
	<path fill="#015186" d="M93.09,23.46h1.389c1.209,0,1.313,0.766,1.313,2.229s-0.104,2.352-1.266,2.352H94.11v2.418H93.09V23.46z
		 M94.403,27.077c0.358,0,0.368-0.302,0.368-1.312c0-1.029-0.01-1.341-0.368-1.341H94.11v2.653H94.403z"/>
	<path fill="#015186" d="M97.517,23.46h1.02v6.999h-1.02V23.46z"/>
	<path fill="#015186" d="M100.362,23.46h1.408c1.114,0,1.256,0.746,1.256,2.163c0,1.143-0.066,1.757-0.558,2.087l0.511,2.749h-0.992
		l-0.463-2.513h-0.17v2.513h-0.992V23.46z M101.638,26.992c0.368,0,0.378-0.34,0.378-1.294c0-0.981-0.01-1.274-0.378-1.274h-0.283
		v2.568H101.638z"/>
	<path fill="#015186" d="M104.742,23.46h2.154v0.992h-1.134v1.955h1.114v0.982h-1.114v2.115h1.143v0.954h-2.163V23.46z"/>
	<path fill="#015186" d="M110.53,30.421l0.217-0.954c0.198,0.048,0.558,0.086,0.746,0.086c0.444,0,0.558-0.228,0.35-0.822
		l-1.058-3.174c-0.331-0.973-0.218-2.153,1.237-2.153c0.236,0,0.595,0.019,0.821,0.066l-0.245,1.001
		c-0.133-0.038-0.368-0.047-0.501-0.047c-0.491,0-0.528,0.34-0.378,0.803l1.002,3.003c0.358,1.03,0.453,2.296-1.172,2.296
		C111.191,30.526,110.775,30.478,110.53,30.421z"/>
	<path fill="#015186" d="M114.675,23.46h1.389c1.209,0,1.313,0.766,1.313,2.229s-0.104,2.352-1.266,2.352h-0.416v2.418h-1.021V23.46
		z M115.988,27.077c0.358,0,0.368-0.302,0.368-1.312c0-1.029-0.01-1.341-0.368-1.341h-0.293v2.653H115.988z"/>
	<path fill="#015186" d="M119.411,30.156c-0.358-0.453-0.378-1.284-0.378-3.201c0-1.852,0.02-2.692,0.359-3.155
		c0.208-0.283,0.566-0.396,1.086-0.396s0.879,0.113,1.077,0.378c0.358,0.463,0.358,1.294,0.358,3.174c0,2.021,0,2.814-0.368,3.239
		c-0.198,0.236-0.548,0.321-1.067,0.321C119.969,30.516,119.609,30.412,119.411,30.156z M120.885,26.974c0-2.39,0-2.55-0.406-2.55
		s-0.406,0.16-0.406,2.55c0,2.408,0,2.569,0.406,2.569S120.885,29.382,120.885,26.974z"/>
	<path fill="#015186" d="M123.662,23.46h1.408c1.114,0,1.256,0.746,1.256,2.163c0,1.143-0.066,1.757-0.558,2.087l0.511,2.749h-0.992
		l-0.463-2.513h-0.17v2.513h-0.992V23.46z M124.937,26.992c0.368,0,0.378-0.34,0.378-1.294c0-0.981-0.01-1.274-0.378-1.274h-0.283
		v2.568H124.937z"/>
	<path fill="#015186" d="M128.661,24.443h-0.755V23.46h2.578v0.982H129.7v6.017h-1.039V24.443z"/>
	<path fill="#015186" d="M132.024,30.421l0.217-0.954c0.198,0.048,0.558,0.086,0.746,0.086c0.444,0,0.558-0.228,0.35-0.822
		l-1.058-3.174c-0.331-0.973-0.218-2.153,1.237-2.153c0.236,0,0.595,0.019,0.821,0.066l-0.245,1.001
		c-0.133-0.038-0.368-0.047-0.501-0.047c-0.491,0-0.528,0.34-0.378,0.803l1.002,3.003c0.358,1.03,0.453,2.296-1.172,2.296
		C132.685,30.526,132.269,30.478,132.024,30.421z"/>
</g>
</svg>
