<?xml version="1.0" encoding="utf-8"?>
<!-- Generator: Adobe Illustrator 20.0.0, SVG Export Plug-In . SVG Version: 6.00 Build 0)  -->
<svg version="1.1" id="Layer_1" xmlns="http://www.w3.org/2000/svg" xmlns:xlink="http://www.w3.org/1999/xlink" x="0px" y="0px"
	 viewBox="0 0 167.58 10.66" enable-background="new 0 0 167.58 10.66" xml:space="preserve">
<g>
	<path fill="#454545" d="M0,0.126h2.241L3.586,6.43l1.499-6.304h1.947L8.545,6.43L9.89,0.126h2.101l-2.312,10.45H7.522L6.009,4.385
		l-1.513,6.191H2.326L0,0.126z"/>
	<path fill="#454545" d="M13.23,0.126h2.185v10.38H13.23V0.126z"/>
	<path fill="#454545" d="M19.293,2.129h-2.787V0.126h7.802v2.003h-2.802v8.377h-2.213V2.129z"/>
	<path fill="#454545" d="M25.27,0.126h2.199v3.937h3.446V0.126h2.213v10.38h-2.213V6.233h-3.446v4.272H25.27V0.126z"/>
	<path fill="#454545" d="M39.257,2.129H36.47V0.126h7.802v2.003H41.47v8.377h-2.213V2.129z"/>
	<path fill="#454545" d="M45.164,6.864V0.126h2.199v6.527c0,1.415,0.336,2.031,1.765,2.031c1.401,0,1.779-0.574,1.779-2.031V0.126
		h2.129v6.738c0,2.465-0.938,3.796-3.936,3.796C46.145,10.66,45.164,9.329,45.164,6.864z"/>
	<path fill="#454545" d="M54.586,0.126h2.325l3.404,5.981V0.126h2.087v10.38h-2.017l-3.712-6.472v6.472h-2.087V0.126z"/>
	<path fill="#454545" d="M64.008,0.126h6.401v2.003h-4.258v2.073h4.076v1.989h-4.076v2.354h4.272v1.961h-6.416V0.126z"/>
	<path fill="#454545" d="M71.806,0.126h3.236c3.292,0,4.566,1.219,4.566,5.183c0,4.049-1.247,5.197-4.566,5.197h-3.236V0.126z
		 M75.237,8.601c1.527,0,2.143-0.616,2.143-3.277c0-2.647-0.602-3.194-2.199-3.194h-1.177v6.472H75.237z"/>
	<path fill="#454545" d="M82.543,9.693l1.106-1.681c0.574,0.364,1.541,0.742,2.76,0.742c1.19,0,1.583-0.378,1.583-1.064
		c0-0.91-0.476-1.051-2.171-1.583c-1.905-0.588-2.815-1.358-2.815-3.054C83.005,1.022,84.294,0,86.591,0
		c1.442,0,2.353,0.252,3.18,0.645l-0.953,1.877c-0.49-0.238-1.191-0.462-2.171-0.462c-1.05,0-1.499,0.266-1.499,0.924
		c0,0.715,0.406,0.883,1.653,1.289c2.479,0.799,3.32,1.345,3.32,3.376c0,1.835-1.121,2.983-3.656,2.983
		C84.742,10.632,83.481,10.31,82.543,9.693z"/>
	<path fill="#454545" d="M91.125,6.864V0.126h2.199v6.527c0,1.415,0.336,2.031,1.765,2.031c1.401,0,1.779-0.574,1.779-2.031V0.126
		h2.129v6.738c0,2.465-0.938,3.796-3.936,3.796C92.106,10.66,91.125,9.329,91.125,6.864z"/>
	<path fill="#454545" d="M99.777,9.693l1.106-1.681c0.574,0.364,1.541,0.742,2.76,0.742c1.19,0,1.583-0.378,1.583-1.064
		c0-0.91-0.476-1.051-2.171-1.583c-1.905-0.588-2.815-1.358-2.815-3.054c0-2.031,1.289-3.054,3.586-3.054
		c1.442,0,2.353,0.252,3.18,0.645l-0.953,1.877c-0.49-0.238-1.191-0.462-2.171-0.462c-1.05,0-1.499,0.266-1.499,0.924
		c0,0.715,0.406,0.883,1.653,1.289c2.479,0.799,3.32,1.345,3.32,3.376c0,1.835-1.121,2.983-3.656,2.983
		C101.977,10.632,100.716,10.31,99.777,9.693z"/>
	<path fill="#454545" d="M108.569,0.126h3.992c2.493,0,3.418,1.261,3.418,3.376c0,2.087-0.911,3.6-3.46,3.6h-1.793v3.404h-2.157
		V0.126z M112.491,5.197c0.953,0,1.345-0.448,1.345-1.569c0-1.135-0.392-1.568-1.345-1.568h-1.765v3.138H112.491z"/>
	<path fill="#454545" d="M117.151,0.126h6.401v2.003h-4.258v2.073h4.076v1.989h-4.076v2.354h4.272v1.961h-6.416V0.126z"/>
	<path fill="#454545" d="M124.949,0.126h2.325l3.404,5.981V0.126h2.087v10.38h-2.017l-3.712-6.472v6.472h-2.087V0.126z"/>
	<path fill="#454545" d="M133.741,9.693l1.106-1.681c0.574,0.364,1.541,0.742,2.76,0.742c1.19,0,1.583-0.378,1.583-1.064
		c0-0.91-0.477-1.051-2.171-1.583c-1.905-0.588-2.815-1.358-2.815-3.054c0-2.031,1.289-3.054,3.585-3.054
		c1.443,0,2.354,0.252,3.18,0.645l-0.952,1.877c-0.49-0.238-1.19-0.462-2.171-0.462c-1.051,0-1.499,0.266-1.499,0.924
		c0,0.715,0.406,0.883,1.652,1.289c2.479,0.799,3.32,1.345,3.32,3.376c0,1.835-1.121,2.983-3.656,2.983
		C135.94,10.632,134.679,10.31,133.741,9.693z"/>
	<path fill="#454545" d="M142.659,0.126h2.186v10.38h-2.186V0.126z"/>
	<path fill="#454545" d="M146.159,5.323c0-2.83,0.589-5.323,4.301-5.323s4.3,2.493,4.3,5.323c0,2.815-0.588,5.309-4.3,5.309
		S146.159,8.139,146.159,5.323z M152.533,5.394c0-1.947-0.225-3.278-2.073-3.278c-1.85,0-2.073,1.331-2.073,3.278
		c0,1.961,0.224,3.291,2.073,3.291C152.308,8.685,152.533,7.354,152.533,5.394z"/>
	<path fill="#454545" d="M155.945,0.126h2.325l3.404,5.981V0.126h2.087v10.38h-2.018l-3.712-6.472v6.472h-2.087V0.126z"/>
	<path fill="#454545" d="M165.17,7.998h2.409v2.508h-2.409V7.998z"/>
</g>
</svg>
