<?xml version="1.0" encoding="utf-8"?>
<!-- Generator: Adobe Illustrator 17.1.0, SVG Export Plug-In . SVG Version: 6.00 Build 0)  -->
<!DOCTYPE svg PUBLIC "-//W3C//DTD SVG 1.1//EN" "http://www.w3.org/Graphics/SVG/1.1/DTD/svg11.dtd">
<svg version="1.1" id="Layer_1" xmlns="http://www.w3.org/2000/svg" xmlns:xlink="http://www.w3.org/1999/xlink" x="0px" y="0px"
	 viewBox="0 0 104 24" enable-background="new 0 0 104 24" xml:space="preserve">
<g>
	<g>
		<g>
			<path fill="#055185" d="M9.66,7.672h2.724c1.685,0,2.493,0.624,2.493,2.159c0,1.108-0.416,1.674-1.062,1.905
				c0.796,0.242,1.235,0.842,1.235,2.135c0,1.766-1.004,2.355-2.598,2.355H9.66V7.672z M12.349,11.319
				c0.912,0,1.42-0.311,1.42-1.351c0-1.028-0.508-1.316-1.42-1.316h-1.582v2.666H12.349z M12.441,15.267
				c0.901,0,1.489-0.311,1.489-1.477c0-1.154-0.589-1.466-1.489-1.466h-1.674v2.943H12.441z"/>
			<path fill="#055185" d="M15.867,11.955c0-2.366,0.37-4.375,3.255-4.375c2.874,0,3.232,2.008,3.232,4.375
				c0,2.366-0.358,4.363-3.232,4.363C16.237,16.318,15.867,14.32,15.867,11.955z M21.235,11.989c0-1.916-0.208-3.336-2.112-3.336
				c-1.927,0-2.124,1.42-2.124,3.336c0,1.917,0.197,3.325,2.124,3.325C21.039,15.314,21.235,13.905,21.235,11.989z"/>
			<path fill="#055185" d="M23.253,11.955c0-2.366,0.37-4.375,3.255-4.375c2.874,0,3.232,2.008,3.232,4.375
				c0,2.366-0.358,4.363-3.232,4.363C23.622,16.318,23.253,14.32,23.253,11.955z M28.62,11.989c0-1.916-0.207-3.336-2.112-3.336
				c-1.927,0-2.124,1.42-2.124,3.336c0,1.917,0.197,3.325,2.124,3.325C28.424,15.314,28.62,13.905,28.62,11.989z"/>
			<path fill="#055185" d="M30.869,7.672h1.108v4.063l3.232-4.063h1.293l-2.609,3.232l2.69,5.321h-1.235l-2.205-4.409l-1.166,1.5
				v2.909h-1.108V7.672z"/>
			<path fill="#055185" d="M41.543,8.699h-2.401V7.672h5.933v1.028h-2.412v7.526h-1.12V8.699z"/>
			<path fill="#055185" d="M46.02,7.672h4.698v1.028h-3.601v2.597h3.417v1.016h-3.417v2.909h3.635v1.004H46.02V7.672z"/>
			<path fill="#055185" d="M51.421,15.625l0.554-0.866c0.427,0.254,1.165,0.589,2.205,0.589c1.108,0,1.628-0.473,1.628-1.293
				c0-0.969-0.508-1.223-1.882-1.789c-1.42-0.589-2.182-1.119-2.182-2.458c0-1.386,0.877-2.228,2.563-2.228
				c0.993,0,1.674,0.185,2.274,0.462L56.107,9c-0.438-0.208-1.004-0.37-1.777-0.37c-1.039,0-1.489,0.45-1.489,1.143
				c0,0.796,0.358,1.016,1.581,1.558c1.743,0.739,2.482,1.166,2.482,2.712c0,1.409-0.9,2.275-2.7,2.275
				C52.91,16.318,52.009,15.994,51.421,15.625z"/>
			<path fill="#055185" d="M59.729,8.699h-2.401V7.672h5.933v1.028h-2.412v7.526h-1.12V8.699z"/>
			<path fill="#055185" d="M66.283,7.672h2.424c2.69,0,3.371,1.386,3.371,4.271c0,2.943-0.659,4.282-3.417,4.282h-2.377V7.672z
				 M68.741,15.244c1.836,0,2.205-1.051,2.205-3.29c0-2.216-0.357-3.255-2.181-3.255h-1.362v6.545H68.741z"/>
			<path fill="#055185" d="M75.873,12.924h-1.558v3.301h-1.108V7.672h2.886c1.777,0,2.539,0.843,2.539,2.551
				c0,1.386-0.497,2.309-1.65,2.598l1.547,3.405h-1.166L75.873,12.924z M76.057,11.92c1.028,0,1.467-0.438,1.467-1.639
				c0-1.178-0.439-1.605-1.467-1.605h-1.743v3.244H76.057z"/>
			<path fill="#055185" d="M79.969,7.672h1.119v8.554h-1.119V7.672z"/>
			<path fill="#055185" d="M82.138,7.672h1.131l2.089,6.961l2.054-6.961h1.119l-2.609,8.611h-1.177L82.138,7.672z"/>
			<path fill="#055185" d="M89.512,7.672h4.698v1.028h-3.602v2.597h3.417v1.016h-3.417v2.909h3.636v1.004h-4.732V7.672z"/>
		</g>
	</g>
	<rect x="0.5" y="0.5" fill="none" stroke="#055185" stroke-miterlimit="10" width="103" height="23"/>
</g>
</svg>
